<svg width="17" height="17" viewBox="0 0 17 17" fill="none" xmlns="http://www.w3.org/2000/svg">
<path d="M7.06979 10.07L4.9001 7.90005C4.74222 7.74604 4.55632 7.67291 4.34241 7.68065C4.12865 7.68839 3.94376 7.77112 3.78774 7.92884C3.63187 8.08672 3.55393 8.27162 3.55393 8.48352C3.55393 8.69557 3.63094 8.87868 3.78495 9.03285L6.51001 11.74C6.6696 11.8979 6.85572 11.9769 7.0684 11.9769C7.28107 11.9769 7.46813 11.8979 7.62957 11.74L13.2977 6.06098C13.4556 5.90682 13.5336 5.72262 13.5317 5.5084C13.5299 5.29418 13.4519 5.10851 13.2977 4.95141C13.1408 4.7974 12.9561 4.72039 12.7437 4.72039C12.5312 4.72039 12.3461 4.7974 12.1884 4.95141L7.06979 10.07ZM1.58182 17C1.15462 17 0.784217 16.8431 0.470623 16.5294C0.156874 16.2158 0 15.8454 0 15.4182V1.58739C0 1.15864 0.156874 0.786925 0.470623 0.472247C0.784217 0.157415 1.15462 0 1.58182 0H15.4126C15.8414 0 16.2131 0.157415 16.5278 0.472247C16.8426 0.786925 17 1.15864 17 1.58739V15.4182C17 15.8454 16.8426 16.2158 16.5278 16.5294C16.2131 16.8431 15.8414 17 15.4126 17H1.58182Z" fill="#111111"/>
</svg>
