<svg width="39" height="39" viewBox="0 0 39 39" fill="none" xmlns="http://www.w3.org/2000/svg">
<path d="M19.2485 4.8125C27.2216 4.8125 33.685 11.2759 33.6851 19.249C33.6851 27.2221 27.2217 33.6855 19.2485 33.6855C11.2755 33.6855 4.81201 27.2221 4.81201 19.249C4.81206 11.276 11.2755 4.81254 19.2485 4.8125ZM26.4858 13.4512C25.9414 12.9979 25.1328 13.071 24.6792 13.6152L17.8579 21.7998C17.7401 21.9412 17.6429 22.0559 17.5581 22.1543C17.4648 22.064 17.3571 21.9591 17.2271 21.8291L13.7397 18.3418C13.2386 17.841 12.4253 17.8408 11.9243 18.3418C11.4237 18.8428 11.4237 19.6552 11.9243 20.1562L15.4116 23.6436C15.6944 23.9263 16.0001 24.2351 16.2896 24.4541C16.6086 24.6954 17.0734 24.9573 17.6841 24.9297C18.2946 24.9019 18.7329 24.5992 19.0288 24.3301C19.2974 24.0858 19.5735 23.7507 19.8296 23.4434L26.6499 15.2578C27.1035 14.7134 27.0302 13.9049 26.4858 13.4512Z" fill="#663CFF"/>
</svg>
