<svg width="24" height="24" viewBox="0 0 24 24" fill="none" xmlns="http://www.w3.org/2000/svg">
<path d="M9.39478 10.5156C9.14471 10.9536 9.00024 11.4596 9.00024 12C9.00024 13.6569 10.3434 15 12.0002 15C12.5405 15 13.0458 14.8544 13.4836 14.6045L15.7864 16.9072C14.6353 17.5542 13.353 17.9999 12.0002 18C8.36451 18 5.23186 14.7896 3.81177 13.0654C3.42376 12.5943 3.22974 12.3587 3.22974 12C3.22974 11.6413 3.42376 11.4057 3.81177 10.9346C4.48529 10.1168 5.54575 8.96669 6.8606 7.98145L9.39478 10.5156ZM12.0002 6C15.6359 6.00014 18.7677 9.21046 20.1877 10.9346C20.5759 11.4058 20.7708 11.6412 20.7708 12C20.7708 12.3588 20.5759 12.5942 20.1877 13.0654C19.7134 13.6413 19.046 14.3808 18.2346 15.1133L14.9963 11.875C14.9325 10.3173 13.682 9.0664 12.1243 9.00293L9.57837 6.45703C10.3491 6.17272 11.161 6 12.0002 6Z" fill="#111111"/>
<path d="M5 2L21 18" stroke="#111111" stroke-width="2"/>
</svg>
