<svg width="29" height="28" viewBox="0 0 29 28" fill="none" xmlns="http://www.w3.org/2000/svg">
<path d="M14.4591 0C6.47321 0 0 5.43792 0 12.1456C0 15.8644 1.9946 19.1884 5.12888 21.4166C5.20891 23.1125 4.9442 25.4543 2.58725 26.534L2.58291 26.5362C2.4776 26.5759 2.38695 26.6465 2.32294 26.7385C2.25893 26.8306 2.22459 26.9397 2.22447 27.0516C2.22447 27.198 2.28306 27.3384 2.38735 27.442C2.49165 27.5455 2.6331 27.6037 2.78059 27.6037C2.79387 27.6037 2.80643 27.6016 2.81969 27.6015C2.82259 27.6015 2.82548 27.6015 2.82838 27.6015C5.53559 27.5843 7.83378 26.1319 9.41924 24.5975C9.92197 24.1105 10.6228 23.8709 11.3135 24.0001C12.3257 24.1911 13.378 24.2912 14.4591 24.2912C22.4449 24.2912 28.9181 18.8533 28.9181 12.1456C28.9181 5.43792 22.4449 0 14.4591 0Z" fill="#111111"/>
</svg>
