<svg width="17" height="17" viewBox="0 0 17 17" fill="none" xmlns="http://www.w3.org/2000/svg">
<path d="M1.58182 17C1.15462 17 0.784217 16.8431 0.470623 16.5294C0.156874 16.2158 0 15.8454 0 15.4182V1.58739C0 1.15864 0.156874 0.786925 0.470623 0.472247C0.784217 0.157415 1.15462 0 1.58182 0H15.4126C15.8414 0 16.2131 0.157415 16.5278 0.472247C16.8426 0.786925 17 1.15864 17 1.58739V15.4182C17 15.8454 16.8426 16.2158 16.5278 16.5294C16.2131 16.8431 15.8414 17 15.4126 17H1.58182ZM1.58182 15.4182H15.4126V1.58739H1.58182V15.4182Z" fill="#111111"/>
</svg>
