<svg width="22" height="22" viewBox="0 0 22 22" fill="none" xmlns="http://www.w3.org/2000/svg">
<rect width="22" height="22" rx="11" fill="#663CFF"/>
<path d="M11.021 16.6398C8.92373 16.6398 7.43468 15.5143 7.37177 13.8575H8.93771C8.99364 14.7453 9.87448 15.3116 11.007 15.3116C12.2304 15.3116 13.1182 14.6474 13.1182 13.6617C13.1182 12.662 12.2863 11.949 10.8392 11.942H9.97235V10.6836H10.8392C11.9927 10.6906 12.7966 10.0475 12.7966 9.07575C12.7966 8.15297 12.1045 7.52379 11.035 7.52379C10.0213 7.52379 9.11248 8.09005 9.07753 9.00585H7.59547C7.63742 7.35601 9.16142 6.23748 11.0489 6.23748C13.0413 6.23748 14.2927 7.49583 14.2787 8.99187C14.2927 10.1453 13.5796 10.9703 12.489 11.2429V11.3128C13.8732 11.5086 14.6772 12.4383 14.6702 13.7177C14.6772 15.4024 13.1182 16.6398 11.021 16.6398Z" fill="white"/>
</svg>
