<svg width="24" height="24" viewBox="0 0 24 24" fill="none" xmlns="http://www.w3.org/2000/svg">
<path d="M2.25 12C2.25 17.3848 6.61522 21.75 12 21.75C17.3848 21.75 21.75 17.3848 21.75 12C21.75 6.61522 17.3848 2.25 12 2.25C6.61522 2.25 2.25 6.61522 2.25 12ZM12.5546 9.30872L12.6034 9.33843C12.7862 9.44961 12.9689 9.56654 13.1348 9.68304C13.3236 9.81561 13.5226 9.97009 13.7163 10.1281L13.7561 10.1606C14.0574 10.4062 14.3549 10.6487 14.5671 10.8958C14.8208 11.1913 15 11.544 15 12C15 12.456 14.8208 12.8087 14.5671 13.1042C14.3549 13.3513 14.0574 13.5938 13.7562 13.8394L13.7163 13.8719C13.5226 14.0299 13.3236 14.1844 13.1348 14.317C12.9689 14.4335 12.7862 14.5504 12.6034 14.6616L12.5546 14.6913C12.2631 14.8687 11.9541 15.0569 11.6757 15.1569C11.5144 15.2149 11.3134 15.2634 11.0888 15.2467C10.8503 15.2289 10.6379 15.1418 10.4575 15.0063C10.0886 14.7294 9.95339 14.3351 9.88797 13.9975C9.82704 13.6831 9.80411 13.2858 9.77915 12.8532L9.77649 12.8071C9.76054 12.5313 9.75 12.254 9.75 12C9.75 11.746 9.76054 11.4687 9.77649 11.1929L9.77915 11.1468C9.80411 10.7142 9.82704 10.3169 9.88797 10.0025C9.95339 9.66491 10.0886 9.27063 10.4575 8.9937C10.6379 8.85825 10.8503 8.77106 11.0888 8.75333C11.3134 8.73664 11.5144 8.78514 11.6757 8.84308C11.9541 8.94309 12.2631 9.13126 12.5546 9.30872Z" fill="#663CFF"/>
</svg>
